<svg width="24" height="24" viewBox="0 0 24 24" fill="none" xmlns="http://www.w3.org/2000/svg">
<path d="M12.0277 2C8.31385 2 5.29562 4.71073 5.29562 8.04624V10.9585C5.29562 11.5732 5.00389 12.5104 4.65607 13.0344L3.36574 14.9591C2.56911 16.1482 3.1189 17.4683 4.57752 17.9117C9.41343 19.3628 14.6308 19.3628 19.4667 17.9117C20.8244 17.5086 21.4191 16.0676 20.6785 14.9591L19.3882 13.0344C19.0516 12.5104 18.7599 11.5732 18.7599 10.9585V8.04624C18.7599 4.72081 15.7304 2 12.0277 2Z" stroke="white" stroke-width="1.5" stroke-miterlimit="10" stroke-linecap="round"/>
<path d="M16 18C16 20.2 14.2 22 12 22C10.9067 22 9.89333 21.5467 9.17333 20.8267C8.45333 20.1067 8 19.0933 8 18" stroke="white" stroke-width="1.5" stroke-miterlimit="10"/>
</svg>
